<svg xmlns="http://www.w3.org/2000/svg" version="1.1" width="919" height="990" preserveAspectRatio="none" style="stroke-width: 2px; font-size: 11px; font-family: sans-serif; shape-rendering: crispedges;" id="SVG" viewBox="-20 -47 991.4833374023438 1064"><rect id="backgroundRect" x="-20" y="-47" width="991.4833374023438" height="1064" fill="white"></rect><path d="M 910.0442815935137 990 H 884.968270055352 V 935" fill="none" stroke="black" stroke-width="2" class="treeEdge" vector-effect="non-scaling-stroke" id="node#9"></path><path d="M 919 880 H 884.968270055352 V 935" fill="none" stroke="black" stroke-width="2" class="treeEdge" vector-effect="non-scaling-stroke" id="node#10"></path><path d="M 899.2974195057301 770 H 510.6192406642238 V 852.5" fill="none" stroke="black" stroke-width="2" class="treeEdge" vector-effect="non-scaling-stroke" id="node#7"></path><path d="M 141.6436423169877 660.0000000000001 H 59.25103297731348 V 756.25" fill="none" stroke="black" stroke-width="2" class="treeEdge" vector-effect="non-scaling-stroke" id="node#5"></path><path d="M 188.21337803071646 550 H 34.17502143915184 V 653.125" fill="none" stroke="black" stroke-width="2" class="treeEdge" vector-effect="non-scaling-stroke" id="node#3"></path><path d="M 186.4222343494191 440 H 147.01707336087935 V 384.99999999999994" fill="none" stroke="black" stroke-width="2" class="treeEdge" vector-effect="non-scaling-stroke" id="node#15"></path><path d="M 188.21337803071646 330.00000000000006 H 147.01707336087935 V 384.99999999999994" fill="none" stroke="black" stroke-width="2" class="treeEdge" vector-effect="non-scaling-stroke" id="node#16"></path><path d="M 147.01707336087935 220 H 121.94106182271761 V 302.5" fill="none" stroke="black" stroke-width="2" class="treeEdge" vector-effect="non-scaling-stroke" id="node#13"></path><path d="M 132.68792391050144 110.00000000000004 H 34.17502143915184 V 206.25000000000003" fill="none" stroke="black" stroke-width="2" class="treeEdge" vector-effect="non-scaling-stroke" id="node#17"></path><path d="M 143.43478599828484 0 H 9.099009900990108 V 286.45833333333326" fill="none" stroke="black" stroke-width="2" class="treeEdge" vector-effect="non-scaling-stroke" id="node#1"></path><path d="M 884.968270055352 935 H 510.6192406642238 V 852.5" fill="none" stroke="black" stroke-width="2" class="treeEdge" vector-effect="non-scaling-stroke" id="node#8"></path><path d="M 510.6192406642238 852.5 H 59.25103297731348 V 756.25" fill="none" stroke="black" stroke-width="2" class="treeEdge" vector-effect="non-scaling-stroke" id="node#6"></path><path d="M 59.25103297731348 756.25 H 34.17502143915184 V 653.125" fill="none" stroke="black" stroke-width="2" class="treeEdge" vector-effect="non-scaling-stroke" id="node#4"></path><path d="M 34.17502143915184 653.125 H 9.099009900990108 V 286.45833333333326" fill="none" stroke="black" stroke-width="2" class="treeEdge" vector-effect="non-scaling-stroke" id="node#2"></path><path d="M 147.01707336087935 384.99999999999994 H 121.94106182271761 V 302.5" fill="none" stroke="black" stroke-width="2" class="treeEdge" vector-effect="non-scaling-stroke" id="node#14"></path><path d="M 121.94106182271761 302.5 H 34.17502143915184 V 206.25000000000003" fill="none" stroke="black" stroke-width="2" class="treeEdge" vector-effect="non-scaling-stroke" id="node#12"></path><path d="M 34.17502143915184 206.25000000000003 H 9.099009900990108 V 286.45833333333326" fill="none" stroke="black" stroke-width="2" class="treeEdge" vector-effect="non-scaling-stroke" id="node#11"></path><path d="M 9.099009900990108 286.45833333333326 H 0 V 286.45833333333326" fill="none" stroke="black" stroke-width="2" class="treeEdge" vector-effect="non-scaling-stroke" id="node#0"></path><text x="910.0442815935137" y="990" dominant-baseline="central" transform="matrix(1.07887, 0, 0, 1.07475, 0, 0) matrix(1, 0, 0, 1, -66.5297, -68.8534)">Cami</text><text x="919" y="880" dominant-baseline="central" transform="matrix(1.07887, 0, 0, 1.07475, 0, 0) matrix(1, 0, 0, 1, -67.1844, -61.203)">ThorB</text><text x="899.2974195057301" y="770" dominant-baseline="central" transform="matrix(1.07887, 0, 0, 1.07475, 0, 0) matrix(1, 0, 0, 1, -65.744, -53.5526)">Charlie</text><text x="141.6436423169877" y="660.0000000000001" dominant-baseline="central" transform="matrix(1.07887, 0, 0, 1.07475, 0, 0) matrix(1, 0, 0, 1, -10.355, -45.9023)">Fritzy</text><text x="188.21337803071646" y="550" dominant-baseline="central" transform="matrix(1.07887, 0, 0, 1.07475, 0, 0) matrix(1, 0, 0, 1, -13.7595, -38.2519)">Heidi</text><text x="186.4222343494191" y="440" dominant-baseline="central" transform="matrix(1.07887, 0, 0, 1.07475, 0, 0) matrix(1, 0, 0, 1, -13.6286, -30.6015)">Lily</text><text x="188.21337803071646" y="330.00000000000006" dominant-baseline="central" transform="matrix(1.07887, 0, 0, 1.07475, 0, 0) matrix(1, 0, 0, 1, -13.7595, -22.9511)">ThorA</text><text x="147.01707336087935" y="220" dominant-baseline="central" transform="matrix(1.07887, 0, 0, 1.07475, 0, 0) matrix(1, 0, 0, 1, -10.7478, -15.3008)">Anda</text><text x="132.68792391050144" y="110.00000000000004" dominant-baseline="central" transform="matrix(1.07887, 0, 0, 1.07475, 0, 0) matrix(1, 0, 0, 1, -9.70028, -7.65038)">Vito</text><text x="143.43478599828484" y="0" dominant-baseline="central" transform="matrix(1.07887, 0, 0, 1.07475, 0, 0) matrix(1, 0, 0, 1, -10.4859, -0)">Urza</text></svg>